<svg height="1024" preserveAspectRatio="none" viewBox="0 0 1024 1024" width="1024" xmlns="http://www.w3.org/2000/svg"><path d="m969.6 351.25q-8.6-20.85-19.4-40.85-6.1-11.35-12.9-22.4-29.35-47.55-71.55-89.8-138.25-138.25-333.8-138.25-195.5 0-333.75 138.25-138.25 138.25-138.25 333.75 0 195.55 138.25 333.8 138.25 138.2 333.75 138.2 195.55 0 333.8-138.2 76.15-76.2 110.35-169.75 27.85-76.25 27.85-164.05 0-67.35-16.4-127.95-1.85-6.85-3.9-13.6-6.15-19.95-14.05-39.15z" fill-opacity=".098039"/><path d="m969.7 392q-1.75-6.85-3.65-13.6-1.52421875-5.28554687-3.2-10.55-2.47128906-7.946875-5.25-15.8-9.75-27.55-23.15-53.65-5.8-11.35-12.3-22.4-30.65-52-76.35-97.75-109-109-253.65-132.05-24.5-3.9-50.05-5.35-14.9-.85-30.1-.85-14.1 0-27.9.75-177.55 9.2-305.85 137.5-138.25 138.25-138.25 333.75 0 195.55 138.25 333.8 84.79003906 84.75703125 191.1 117.55 54.53808594 16.81308594 114.75 19.95.2 0 .4 0 12.15.6 24.5.7 1.5 0 3 0 15.25 0 30.1-.8 3.5-.2 6.95-.45 30.05-2.15 58.7-7.7 11.8-2.3 23.4-5.15 120.6-30.05 214.65-124.1 72.9-72.95 107.35-161.8 27.75-71.6 30.55-153.5.3-9.2.3-18.5 0-1 0-2 0-.5 0-1-.35-61.3-14.3-117z" fill="#4000bf"/><path d="m953.15 684q26.32304688-67.91816406 30.2-145.1l-239.25-239.25-454.9 435.7 248.1 248.1q2.39902344-.12070312 4.8-.25 3.5-.2 6.95-.45 30.05-2.15 58.7-7.7 11.8-2.3 23.4-5.15 120.6-30.05 214.65-124.1 72.9-72.95 107.35-161.8z" fill-opacity=".2"/><path d="m827.8 512q0-.92597656 0-1.85-.65488281-129.60488281-92.5-221.45-92.5-92.5-223.3-92.5-130.8 0-223.3 92.5-91.84511719 91.84511719-92.5 221.45 0 .92402344 0 1.85 0 130.8 92.5 223.3 92.5 92.5 223.3 92.5 130.8 0 223.3-92.5 92.5-92.5 92.5-223.3z" fill="#fff"/><path d="m745.6 588.2q2.20605469-6.91152344 3.95-14h-475.15q1.79394531 7.08847656 4 14 10.534375 33.01601562 30.8 62h405.6q20.265625-28.98398438 30.8-62z" fill="#4d00c7"/><path d="m685.25 685.25q16.71855469-16.71855469 29.55-35.05h-405.6q12.83144531 18.33144531 29.55 35.05 71.8 71.8 173.25 71.8 101.5 0 173.25-71.8z" fill="#3800a9"/><path d="m757 512.05q0-.95097656 0-1.9-.08886719-13.2546875-1.4-26h-322.25q-23.646875 10.35-51.6 10.35-27.953125 0-51.6-10.35h-61.75q-1.30957031 12.7453125-1.4 26 0 .94882813 0 1.9 0 32.609375 7.4 62.15h475.15q7.45-29.540625 7.45-62.15z" fill="#5f00d2"/><path d="m290.7 456.8q-7.68769531-7.68769531-13.8-16.05-6.15898437 20.91894531-8.5 43.4h61.75q-21.503125-9.403125-39.45-27.35m464.9 27.35q-8.66777344-83.66777344-70.35-145.35-71.75-71.75-173.25-71.75-22.47695312 0-43.5 3.5 2.17617188 2.02617188 4.3 4.15 37.7 37.7 37.7 91.05 0 53.35-37.7 91.05-17.946875 17.946875-39.45 27.35z" fill="#6d00de"/></svg>